SplineFontDB: 3.0
FontName: Avara
FullName: Avara
FamilyName: Avara
Weight: Book
Copyright: Created by Raphael Bastide with FontForge 2.0 (http://fontforge.sf.net)
UComments: "2011-11-3: Created." 
Version: 001.000
ItalicAngle: 0
UnderlinePosition: -100
UnderlineWidth: 50
Ascent: 800
Descent: 200
LayerCount: 2
Layer: 0 0 "Back"  1
Layer: 1 0 "Fore"  0
XUID: [1021 366 1577494475 15714092]
FSType: 0
OS2Version: 0
OS2_WeightWidthSlopeOnly: 0
OS2_UseTypoMetrics: 1
CreationTime: 1320277816
ModificationTime: 1357087611
PfmFamily: 17
TTFWeight: 700
TTFWidth: 5
LineGap: 90
VLineGap: 0
OS2TypoAscent: 0
OS2TypoAOffset: 1
OS2TypoDescent: 0
OS2TypoDOffset: 1
OS2TypoLinegap: 90
OS2WinAscent: 0
OS2WinAOffset: 1
OS2WinDescent: 0
OS2WinDOffset: 1
HheadAscent: 0
HheadAOffset: 1
HheadDescent: 0
HheadDOffset: 1
OS2Vendor: 'PfEd'
Lookup: 258 0 0 "Hkern"  {"Classes" [150,0,0] } ['kern' ('DFLT' <'dflt' > 'latn' <'dflt' > ) ]
DEI: 91125
KernClass2: 32+ 20 "Classes" 
 1 b
 35 m n i l h igrave iacute icircumflex
 54 a u d agrave aacute acircumflex atilde adieresis aring
 3 o p
 1 r
 1 t
 37 e egrave eacute ecircumflex edieresis
 1 c
 1 s
 1 y
 1 v
 1 z
 1 k
 1 f
 1 R
 1 A
 1 V
 1 T
 1 K
 1 M
 1 G
 4 four
 1 L
 1 D
 1 F
 1 B
 1 j
 1 Y
 1 Z
 1 X
 1 I
 1 E
 45 d o e c q egrave eacute ecircumflex edieresis
 5 m n r
 1 u
 53 a agrave aacute acircumflex atilde adieresis aring ae
 1 t
 1 f
 1 b
 1 s
 1 p
 1 z
 5 y v w
 1 A
 1 V
 28 idieresis icircumflex igrave
 14 k l h i iacute
 1 j
 1 Z
 5 F I E
 3 O Q

StartChar: R
Encoding: 0 82 0
Width: 720
VWidth: 0
Flags: HW
HStem: -0.078125 20.9688G<0 260.014 520 668.889> -0.078125 20.9688G<0 260.014 520 668.889> 760 39.945<240 360>
VStem: 80 120<80 400.008 440 720>
LayerCount: 2
Fore
SplineSet
0 800 m 1x70
 360 800 l 1
 560 760 l 1
 640 600 l 1
 560 440 l 1
 400 400 l 1
 480 360 l 1
 680 -0 l 1
 520 -0 l 1
 480 40 l 5
 360 320 l 1
 320 360 l 1
 200 400 l 1
 200 80 l 1
 280 -0 l 1
 0 0 l 1
 80 80 l 1
 80 720 l 1
 0 800 l 1x70
240 760 m 1
 200 720 l 1
 200 440 l 1
 360 440 l 1
 440 480 l 1
 480 600 l 1
 440 720 l 1
 360 760 l 1
 240 760 l 1
EndSplineSet
Validated: 1
EndChar

StartChar: B
Encoding: 1 66 1
Width: 720
VWidth: 0
Flags: HW
HStem: 0.078125 39.8985<240 400> 760 40.023<240 360>
VStem: 80 120<80 400.031 440 720>
LayerCount: 2
Fore
SplineSet
0 800 m 1
 360 800 l 1
 560 760 l 1
 640 600 l 1
 560 440 l 1
 440 400 l 1
 600 360 l 1
 680 200 l 1
 600 40 l 1
 440 0 l 1
 0 0 l 1
 80 80 l 1
 80 720 l 1
 0 800 l 1
240 760 m 1
 200 720 l 1
 200 440 l 1
 360 440 l 1
 440 480 l 1
 480 600 l 1
 440 720 l 1
 360 760 l 1
 240 760 l 1
200 400 m 1
 200 80 l 1
 240 40 l 1
 400 40 l 1
 480 80 l 1
 520 200 l 1
 480 320 l 1
 360 360 l 1
 200 400 l 1
EndSplineSet
Validated: 1
EndChar

StartChar: a
Encoding: 2 97 2
Width: 520
VWidth: 0
Flags: W
HStem: 0 21G<70 180 340 420> 0 21G<70 180 340 420> 540 20G<90 280>
VStem: 0 120<160 240> 280 120<160 320 360 440>
LayerCount: 2
Fore
SplineSet
120 560 m 1xb8
 240 560 l 1
 400 480 l 1
 400 80 l 1
 480 80 l 1
 480 40 l 1
 360 0 l 1
 280 80 l 1
 240 40 l 1
 120 0 l 1
 80 0 l 1
 0 160 l 1
 0 280 l 1
 280 360 l 1
 280 440 l 1
 240 520 l 1
 120 480 l 1
 80 400 l 1
 0 480 l 1
 120 560 l 1xb8
280 320 m 1
 120 240 l 1
 120 160 l 1
 160 80 l 1
 200 80 l 1
 280 160 l 1
 280 320 l 1
EndSplineSet
Validated: 1
EndChar

StartChar: edieresis
Encoding: 5 235 3
Width: 490
VWidth: 0
Flags: HW
HStem: 0 21G<140 360> 0 21G<140 360> 540 20G<140 340> 600 120<120 160 320 360>
LayerCount: 2
Fore
SplineSet
200 560 m 1xb0
 280 560 l 1
 400 520 l 1
 480 360 l 1
 440 280 l 1
 120 240 l 1
 160 80 l 1
 280 40 l 1
 360 80 l 1
 400 160 l 1
 480 120 l 1
 400 40 l 1
 320 0 l 1
 200 0 l 1
 80 40 l 1
 0 200 l 1
 0 360 l 1
 80 520 l 1
 200 560 l 1xb0
240 520 m 1
 160 480 l 1
 120 280 l 1
 320 320 l 1
 320 480 l 1
 240 520 l 1
360 720 m 1
 400 680 l 1
 400 640 l 1
 360 600 l 1
 280 600 l 1
 280 680 l 1
 320 720 l 1
 360 720 l 1
160 720 m 1
 200 680 l 1
 200 600 l 1
 120 600 l 1
 80 640 l 1
 80 680 l 1
 120 720 l 1
 160 720 l 1
EndSplineSet
Validated: 1
EndChar

StartChar: g
Encoding: 6 103 4
Width: 600
VWidth: 0
Flags: W
HStem: 540 20G<140 340>
VStem: 0 120<-160 -80>
LayerCount: 2
Fore
SplineSet
520 600 m 1
 560 480 l 1
 520 480 l 1
 416 496 l 1
 480 400 l 1
 480 280 l 1
 440 240 l 1
 320 160 l 1
 200 120 l 1
 400 40 l 1
 520 -80 l 1
 520 -160 l 1
 440 -280 l 1
 320 -320 l 1
 240 -320 l 1
 80 -280 l 1
 0 -160 l 1
 0 -80 l 1
 160 40 l 1
 40 80 l 1
 80 120 l 1
 200 160 l 1
 80 200 l 1
 0 280 l 1
 0 400 l 1
 80 520 l 1
 200 560 l 1
 280 560 l 1
 400 520 l 1
 440 560 l 1
 520 600 l 1
240 520 m 1
 160 480 l 1
 120 360 l 1
 160 240 l 1
 240 200 l 1
 320 240 l 1
 360 360 l 1
 320 480 l 1
 240 520 l 1
200 0 m 1
 120 -80 l 1
 120 -160 l 1
 200 -240 l 1
 360 -280 l 1
 400 -200 l 1
 400 -120 l 1
 320 -40 l 1
 200 0 l 1
EndSplineSet
Validated: 1
EndChar

StartChar: t
Encoding: 7 116 5
Width: 360
VWidth: 0
Flags: HW
HStem: 0 21G<140 290> 0 21G<140 290> 520 40<200 280>
VStem: 80 120<80 520>
LayerCount: 2
Fore
SplineSet
200 720 m 1xb0
 200 560 l 1
 280 560 l 1
 280 520 l 1
 200 520 l 1
 200 80 l 1
 240 40 l 1
 280 120 l 1
 320 80 l 1
 280 0 l 1
 160 0 l 1
 80 80 l 1
 80 520 l 1
 0 520 l 1
 0 560 l 1
 80 600 l 1
 120 640 l 1
 160 720 l 1
 200 720 l 1xb0
EndSplineSet
Validated: 1
EndChar

StartChar: p
Encoding: 8 112 6
Width: 600
VWidth: 0
Flags: W
HStem: 0 21G<240 420> 0 21G<240 420> 540 20G<150 200 260 420>
VStem: 80 120<-240 40 160 400>
LayerCount: 2
Fore
SplineSet
360 560 m 1xb0
 480 520 l 1
 560 360 l 1
 560 200 l 1
 480 40 l 1
 360 0 l 1
 280 0 l 1
 200 40 l 1
 200 -240 l 1
 280 -320 l 1
 0 -320 l 1
 80 -240 l 1
 80 440 l 1
 0 480 l 1
 200 560 l 1
 200 480 l 1
 280 560 l 1
 360 560 l 1xb0
320 520 m 1
 200 400 l 1
 200 160 l 1
 240 80 l 1
 320 40 l 1
 400 80 l 1
 440 280 l 1
 400 480 l 1
 320 520 l 1
EndSplineSet
Validated: 1
EndChar

StartChar: o
Encoding: 9 111 7
Width: 520
VWidth: 0
Flags: W
HStem: 0 21G<140 340> 0 21G<140 340> 540 20G<140 340>
LayerCount: 2
Fore
SplineSet
200 560 m 1xa0
 280 560 l 1
 400 520 l 1
 480 360 l 1
 480 200 l 1
 400 40 l 1
 280 0 l 1
 200 0 l 1
 80 40 l 1
 0 200 l 1
 0 360 l 1
 80 520 l 1
 200 560 l 1xa0
240 520 m 1
 160 480 l 1
 120 280 l 1
 160 80 l 1
 240 40 l 1
 320 80 l 1
 360 280 l 1
 320 480 l 1
 240 520 l 1
EndSplineSet
Validated: 1
EndChar

StartChar: r
Encoding: 10 114 8
Width: 520
VWidth: 0
Flags: W
HStem: 0 21G<0 280> 0 21G<0 280> 540 20G<150 200 320 400>
VStem: 80 120<80 320 400 440>
LayerCount: 2
Fore
SplineSet
200 560 m 1xb0
 200 400 l 1
 280 520 l 1
 360 560 l 1
 440 520 l 1
 480 440 l 1
 360 360 l 1
 320 440 l 1
 280 440 l 1
 200 320 l 1
 200 80 l 1
 280 0 l 1
 0 0 l 1
 80 80 l 1
 80 440 l 1
 0 480 l 1
 200 560 l 1xb0
EndSplineSet
Validated: 1
EndChar

StartChar: s
Encoding: 11 115 9
Width: 520
VWidth: 0
Flags: W
HStem: 0 21G<140 320> 0 21G<140 320> 520 40<240 320>
LayerCount: 2
Fore
SplineSet
360 400 m 1xa0
 320 520 l 1
 240 520 l 1
 160 480 l 1
 160 400 l 1
 440 280 l 1
 480 200 l 1
 400 40 l 1
 240 0 l 5
 200 0 l 1
 80 40 l 1
 0 120 l 1
 80 200 l 1
 120 80 l 1
 200 40 l 1
 320 80 l 1
 360 120 l 1
 360 160 l 1
 80 320 l 1
 40 400 l 1
 80 520 l 1
 200 560 l 1
 360 560 l 1
 440 480 l 1
 360 400 l 1xa0
EndSplineSet
Validated: 1
EndChar

StartChar: u
Encoding: 12 117 10
Width: 600
VWidth: 0
Flags: W
HStem: 0 80<200 240> 0 21G<420 500> 540 20G<80 160 400 480>
VStem: 40 120<120 480> 360 120<200 480>
LayerCount: 2
Fore
SplineSet
560 40 m 1xb8
 440 0 l 1x78
 360 80 l 1
 320 40 l 1
 240 0 l 1
 200 0 l 1
 80 40 l 1
 40 120 l 1
 40 480 l 1
 0 520 l 1
 160 560 l 1
 160 120 l 1
 200 80 l 1
 280 80 l 1
 320 120 l 1
 360 200 l 1
 360 480 l 1
 320 520 l 1
 480 560 l 1
 480 80 l 1
 560 80 l 1
 560 40 l 1xb8
EndSplineSet
Validated: 1
EndChar

StartChar: e
Encoding: 13 101 11
Width: 520
VWidth: 0
Flags: W
HStem: 0 21G<140 360> 0 21G<140 360> 540 20G<140 340>
LayerCount: 2
Fore
SplineSet
200 560 m 1xa0
 280 560 l 1
 400 520 l 1
 480 360 l 1
 440 280 l 1
 120 240 l 1
 160 80 l 1
 280 40 l 1
 360 80 l 1
 400 160 l 1
 480 120 l 1
 400 40 l 1
 320 0 l 1
 200 0 l 1
 80 40 l 1
 0 200 l 1
 0 360 l 1
 80 520 l 1
 200 560 l 1xa0
240 520 m 1
 160 480 l 1
 120 280 l 1
 320 320 l 1
 320 480 l 1
 240 520 l 1
EndSplineSet
Validated: 1
EndChar

StartChar: i
Encoding: 14 105 12
Width: 320
VWidth: 0
Flags: W
HStem: 0 21G<20 300> 0 21G<20 300> 540 20G<170 220>
VStem: 100 120<80 440>
LayerCount: 2
Fore
SplineSet
20 480 m 1xb0
 220 560 l 1
 220 80 l 1
 300 0 l 1
 20 0 l 1
 100 80 l 1
 100 440 l 1
 20 480 l 1xb0
140 600 m 1
 60 640 l 1
 60 680 l 1
 100 760 l 1
 140 760 l 1
 220 720 l 1
 220 680 l 1
 180 600 l 1
 140 600 l 1
EndSplineSet
Validated: 1
EndChar

StartChar: h
Encoding: 15 104 13
Width: 680
VWidth: 0
Flags: W
HStem: 0 21G<0 280 360 640> 0 21G<0 280 360 640> 540 20G<320 440> 820 20G<150 200>
VStem: 80 120<80 360 440 720> 440 120<80 440>
LayerCount: 2
Fore
SplineSet
0 760 m 1xbc
 200 840 l 1
 200 440 l 1
 280 520 l 1
 360 560 l 1
 520 520 l 1
 560 440 l 1
 560 80 l 1
 640 0 l 1
 360 0 l 1
 440 80 l 1
 440 440 l 1
 400 480 l 1
 320 480 l 1
 200 360 l 1
 200 80 l 1
 280 0 l 1
 160 0 l 1
 80 0 l 1
 0 0 l 1
 80 80 l 1
 80 720 l 1
 0 760 l 1xbc
EndSplineSet
Validated: 1
EndChar

StartChar: l
Encoding: 16 108 14
Width: 320
VWidth: 0
Flags: W
HStem: 0 21G<0 280> 0 21G<0 280> 820 20G<150 200>
VStem: 80 120<80 720>
LayerCount: 2
Fore
SplineSet
0 760 m 5xb0
 200 840 l 1
 200 80 l 1
 280 0 l 1
 0 0 l 1
 80 80 l 1
 80 720 l 1
 0 760 l 5xb0
EndSplineSet
Validated: 1
EndChar

StartChar: m
Encoding: 17 109 15
Width: 1040
VWidth: 0
Flags: HW
HStem: 0 21G<0 280 360 620 720 1000> 0 21G<0 280 360 620 720 1000> 540 20G<150 200 320 440 680 800>
VStem: 80 120<80 360> 440 120<80 360> 800 120<80 440>
CounterMasks: 1 1c
LayerCount: 2
Fore
SplineSet
0 0 m 1
 80 80 l 1
 80 440 l 1
 0 480 l 1
 200 560 l 1
 200 440 l 1
 280 520 l 1
 360 560 l 1
 520 520 l 1
 560 440 l 1
 640 520 l 1
 720 560 l 1
 880 520 l 1
 920 440 l 1
 920 80 l 1
 1000 0 l 1
 720 0 l 1
 800 80 l 1
 800 440 l 1
 760 480 l 1
 680 480 l 1
 560 360 l 1
 560 80 l 1
 640 0 l 1
 360 0 l 1
 440 80 l 1
 440 440 l 1
 400 480 l 1
 320 480 l 1
 200 360 l 1
 200 80 l 1
 280 0 l 1
 0 0 l 1
EndSplineSet
Validated: 1
EndChar

StartChar: n
Encoding: 18 110 16
Width: 680
VWidth: 0
Flags: HMW
LayerCount: 2
Fore
SplineSet
0 0 m 1
 80 80 l 1
 80 440 l 1
 0 480 l 1
 200 560 l 1
 200 440 l 1
 280 520 l 1
 360 560 l 1
 520 520 l 1
 560 440 l 1
 560 80 l 1
 640 0 l 1
 360 0 l 1
 440 80 l 1
 440 440 l 1
 400 480 l 1
 320 480 l 1
 200 360 l 1
 200 80 l 1
 280 0 l 1
 0 0 l 1
EndSplineSet
Validated: 1
EndChar

StartChar: q
Encoding: 19 113 17
Width: 600
VWidth: 0
Flags: HW
HStem: 0 21G<140.003 320> 0 21G<140.003 320> 540.002 20G<140 339.997 480 540>
VStem: 360 120<-239.998 40 160 400>
LayerCount: 2
Fore
SplineSet
560 560 m 1xb0
 480 480 l 1
 480 -240 l 1
 560 -320 l 1
 280 -320 l 1
 360 -240 l 1
 360 40 l 1
 280 0 l 1
 200 0 l 1
 80 40 l 1
 0 200 l 1
 0 360 l 1
 80 520 l 1
 200 560 l 1
 280 560 l 1
 400 520 l 1
 480 560 l 1
 560 560 l 1xb0
240 520 m 1
 160 480 l 1
 120 280 l 1
 160 80 l 1
 240 40 l 1
 320 80 l 1
 360 160 l 1
 360 400 l 1
 320 480 l 1
 240 520 l 1
EndSplineSet
Validated: 1
EndChar

StartChar: d
Encoding: 20 100 18
Width: 600
VWidth: 0
Flags: W
HStem: 0 21G<140 320 430 494.545> 0 21G<140 320 430 494.545> 540 20G<140 320> 820 20G<430 480>
VStem: 360 120<160 400 520 720>
LayerCount: 2
Fore
SplineSet
480 840 m 1xb8
 480 80 l 5
 560 80 l 1
 560 44 l 1
 440 0 l 1
 400 80 l 1
 360 40 l 1
 280 0 l 1
 200 0 l 1
 80 40 l 1
 0 200 l 1
 0 360 l 1
 80 520 l 1
 200 560 l 1
 280 560 l 1
 360 520 l 1
 360 720 l 1
 280 760 l 1
 480 840 l 1xb8
240 520 m 1
 160 480 l 1
 120 280 l 1
 160 80 l 1
 240 40 l 1
 320 80 l 1
 360 160 l 1
 360 400 l 1
 320 480 l 1
 240 520 l 1
EndSplineSet
Validated: 1
EndChar

StartChar: uni007F
Encoding: 21 127 19
Width: 1000
VWidth: 0
Flags: H
HStem: -320 40<0 40> -280 40<40 80> -240 40<80 120> -200 40<120 160> -160 40<160 200> -120 40<200 240> -80 40<240 280> -40 40<280 320> 0 40<320 360> 40 40<360 400> 80 40<400 440> 120 40<440 480> 160 40<480 520> 200 40<520 560> 240 40<560 600> 280 40<600 640> 320 40<640 680> 360 40<680 720> 400 40<720 760> 440 40<760 800> 480 40<800 840> 520 40<840 880> 560 40<880 920> 600 40<920 960> 640 40<960 1000> 680 40<1000 1040> 720 40<1040 1080> 760 40<1080 1120> 800 40<1120 1160>
VStem: 0 40<-320 -280> 40 40<-280 -240> 80 40<-240 -200> 120 40<-200 -160> 160 40<-160 -120> 200 40<-120 -80> 240 40<-80 -40> 280 40<-40 0> 320 40<0 40> 360 40<40 80> 400 40<80 120> 440 40<120 160> 480 40<160 200> 520 40<200 240> 560 40<240 280> 600 40<280 320> 640 40<320 360> 680 40<360 400> 720 40<400 440> 760 40<440 480> 800 40<480 520> 840 40<520 560> 880 40<560 600> 920 40<600 640> 960 40<640 680> 1000 40<680 720> 1040 40<720 760> 1080 40<760 800> 1120 40<800 840>
LayerCount: 2
Fore
SplineSet
0 -320 m 5
 0 -280 l 5
 40 -280 l 5
 40 -240 l 5
 80 -240 l 5
 80 -200 l 5
 120 -200 l 5
 120 -160 l 5
 160 -160 l 5
 160 -120 l 5
 200 -120 l 5
 200 -80 l 5
 240 -80 l 5
 240 -120 l 5
 200 -120 l 5
 200 -160 l 5
 160 -160 l 5
 160 -200 l 5
 120 -200 l 5
 120 -240 l 5
 80 -240 l 5
 80 -280 l 5
 40 -280 l 5
 40 -320 l 5
 0 -320 l 5
440 120 m 5
 440 160 l 5
 480 160 l 5
 480 120 l 5
 440 120 l 5
440 120 m 5
 440 80 l 5
 400 80 l 5
 400 120 l 5
 440 120 l 5
400 80 m 5
 400 40 l 5
 360 40 l 5
 360 80 l 5
 400 80 l 5
360 40 m 5
 360 0 l 5
 320 0 l 5
 320 40 l 5
 360 40 l 5
320 0 m 5
 320 -40 l 5
 280 -40 l 5
 280 0 l 5
 320 0 l 5
280 -40 m 5
 280 -80 l 5
 240 -80 l 5
 240 -40 l 5
 280 -40 l 5
1000 680 m 5
 1000 720 l 5
 1040 720 l 5
 1040 680 l 5
 1000 680 l 5
1000 680 m 5
 1000 640 l 5
 960 640 l 5
 960 680 l 5
 1000 680 l 5
960 640 m 5
 960 600 l 5
 920 600 l 5
 920 640 l 5
 960 640 l 5
920 600 m 5
 920 560 l 5
 880 560 l 5
 880 600 l 5
 920 600 l 5
880 560 m 5
 880 520 l 5
 840 520 l 5
 840 560 l 5
 880 560 l 5
840 520 m 5
 840 480 l 5
 800 480 l 5
 800 520 l 5
 840 520 l 5
800 480 m 5
 800 440 l 5
 760 440 l 5
 760 480 l 5
 800 480 l 5
760 440 m 5
 760 400 l 5
 720 400 l 5
 720 440 l 5
 760 440 l 5
720 400 m 5
 720 360 l 5
 680 360 l 5
 680 400 l 5
 720 400 l 5
680 360 m 5
 680 320 l 5
 640 320 l 5
 640 360 l 5
 680 360 l 5
640 320 m 5
 640 280 l 5
 600 280 l 5
 600 320 l 5
 640 320 l 5
600 280 m 5
 600 240 l 5
 560 240 l 5
 560 280 l 5
 600 280 l 5
560 240 m 5
 560 200 l 5
 520 200 l 5
 520 240 l 5
 560 240 l 5
480 160 m 5
 480 200 l 5
 520 200 l 5
 520 160 l 5
 480 160 l 5
1120 800 m 5
 1120 840 l 5
 1160 840 l 5
 1160 800 l 5
 1120 800 l 5
1120 800 m 5
 1120 760 l 5
 1080 760 l 5
 1080 800 l 5
 1120 800 l 5
1040 720 m 5
 1040 760 l 5
 1080 760 l 5
 1080 720 l 5
 1040 720 l 5
EndSplineSet
Validated: 5
EndChar

StartChar: at
Encoding: 23 64 20
Width: 800
VWidth: 0
Flags: W
HStem: 0 21G<265 360 546.667 617.143> 0 21G<265 360 546.667 617.143>
VStem: 680 80<200 480>
LayerCount: 2
Fore
SplineSet
480 440 m 1x20
 360 440 l 1
 320 400 l 1
 280 240 l 1
 320 120 l 1
 400 80 l 1
 440 160 l 1
 480 440 l 1x20
40 520 m 1
 200 640 l 1
 400 690 l 1
 600 640 l 1
 760 520 l 1
 760 200 l 1
 680 42 l 1
 560 0 l 1
 480 120 l 1
 440 40 l 1
 280 0 l 1xa0
 160 160 l 1
 160 320 l 1
 200 440 l 1
 320 520 l 1
 480 480 l 1
 520 520 l 1
 600 520 l 1
 560 200 l 1
 600 80 l 1
 680 200 l 1
 680 480 l 1
 560 600 l 1
 400 640 l 1
 240 600 l 1
 120 480 l 1
 80 280 l 1
 120 120 l 1
 240 -80 l 1
 480 -40 l 1
 480 -80 l 1
 200 -120 l 1
 40 80 l 1
 0 280 l 1
 40 520 l 1
EndSplineSet
Validated: 1
EndChar

StartChar: b
Encoding: 24 98 21
Width: 600
VWidth: 0
Flags: HW
LayerCount: 2
Fore
SplineSet
80 720 m 1
 0 760 l 1
 200 840 l 1
 200 520 l 1
 280 560 l 1
 360 560 l 1
 480 520 l 1
 560 360 l 1
 560 200 l 1
 480 40 l 1
 360 0 l 1
 280 0 l 1
 200 40 l 1
 160 80 l 1
 80 0 l 1
 80 720 l 1
320 520 m 1
 240 480 l 1
 200 400 l 1
 200 160 l 1
 240 80 l 1
 320 40 l 1
 400 80 l 1
 440 280 l 1
 400 480 l 1
 320 520 l 1
EndSplineSet
Validated: 1
EndChar

StartChar: j
Encoding: 25 106 22
Width: 280
VWidth: 0
Flags: W
HStem: 540 20G<190 240>
VStem: -80 80<-240 -200> 120 120<-200 440>
LayerCount: 2
Fore
SplineSet
40 480 m 1
 240 560 l 1
 240 -200 l 1
 160 -280 l 1
 80 -320 l 1
 -40 -280 l 1
 -80 -240 l 1
 -80 -160 l 1
 0 -80 l 1
 40 -120 l 1
 0 -200 l 1
 0 -240 l 1
 80 -280 l 0
 120 -200 l 1
 120 440 l 1
 40 480 l 1
160 600 m 1
 80 640 l 1
 80 680 l 1
 120 760 l 1
 160 760 l 1
 240 720 l 1
 240 680 l 1
 200 600 l 1
 160 600 l 1
EndSplineSet
Validated: 1
EndChar

StartChar: c
Encoding: 26 99 23
Width: 520
VWidth: 0
Flags: W
HStem: 0 21G<140 360> 0 21G<140 360> 540 20G<140 340>
VStem: 0 120<212 348>
LayerCount: 2
Fore
SplineSet
320 480 m 1xb0
 240 520 l 1
 160 480 l 1
 120 320 l 1
 120 240 l 1
 160 80 l 1
 280 40 l 1
 360 80 l 1
 400 160 l 1
 480 120 l 1
 400 40 l 1
 320 0 l 1
 200 0 l 1
 80 40 l 1
 0 200 l 1
 0 360 l 1
 80 520 l 1
 200 560 l 1
 280 560 l 1
 400 520 l 5
 440 440 l 1
 360 360 l 9
 320 360 l 25
 320 480 l 1xb0
EndSplineSet
Validated: 1
EndChar

StartChar: period
Encoding: 27 46 24
Width: 200
VWidth: 0
Flags: W
HStem: 0 160
VStem: 0 160
LayerCount: 2
Fore
SplineSet
80 0 m 1
 0 40 l 1
 0 80 l 1
 40 160 l 1
 80 160 l 1
 160 120 l 1
 160 80 l 1
 120 0 l 1
 80 0 l 1
EndSplineSet
Validated: 1
EndChar

StartChar: A
Encoding: 28 65 25
Width: 800
VWidth: 0
Flags: HW
HStem: 0 21G<0 240 518 768> 0 21G<0 240 518 768> 240 40<231.429 487.286> 780 20G<380 446.611>
LayerCount: 2
Fore
SplineSet
501 240 m 1xb0
 217 240 l 1
 160 80 l 1
 240 0 l 1
 0 0 l 1
 80 80 l 1
 320 720 l 1
 320 760 l 1
 440 800 l 1
 678 80 l 1
 768 0 l 1
 518 0 l 1
 558 80 l 1
 501 240 l 1xb0
487 280 m 1
 360 640 l 1
 231 280 l 1
 487 280 l 1
EndSplineSet
Validated: 1
EndChar

StartChar: C
Encoding: 29 67 26
Width: 720
VWidth: 0
Flags: HW
HStem: 0 21G<240 510> 0 21G<240 510> 560 21G<520 620> 760 40<360 440>
LayerCount: 2
Fore
SplineSet
160 240 m 9xb0
 240 80 l 25
 400 40 l 25
 520 80 l 17
 600 160 l 1
 640 240 l 9
 680 200 l 25
 600 80 l 25
 480 0 l 17
 280 0 l 1
 120 80 l 1
 40 200 l 1
 0 400 l 1
 40 600 l 9
 120 720 l 25
 280 800 l 25
 470 800 l 25
 640 720 l 25
 680 640 l 25
 600 560 l 25
 520 560 l 25
 520 680 l 17
 440 760 l 1
 360 760 l 9
 240 680 l 25
 160 560 l 17
 160 240 l 9xb0
EndSplineSet
Validated: 1
EndChar

StartChar: D
Encoding: 30 68 27
Width: 760
VWidth: 0
Flags: HWO
HStem: 0 40<240 400> 760 40<240 360>
VStem: 80 120<80 720>
LayerCount: 2
Fore
SplineSet
0 800 m 1
 360 800 l 1
 560 720 l 1
 680 600 l 1
 720 400 l 1
 680 200 l 1
 600 40 l 1
 440 0 l 1
 0 0 l 1
 80 80 l 1
 80 720 l 1
 0 800 l 1
560 560 m 1
 520 640 l 1
 440 720 l 1
 360 760 l 1
 240 760 l 1
 200 720 l 1
 200 80 l 1
 240 40 l 1
 400 40 l 1
 480 80 l 1
 560 160 l 1
 600 400 l 1
 560 560 l 1
EndSplineSet
EndChar

StartChar: E
Encoding: 32 69 28
Width: 680
VWidth: 0
Flags: W
HStem: 0 40<240 520> 400 40<240 400> 760 40<240 480>
VStem: 80 120<80 360 480 720>
LayerCount: 2
Fore
SplineSet
640 200 m 5
 640 0 l 5
 0 0 l 5
 80 80 l 5
 80 720 l 5
 0 800 l 5
 600 800 l 5
 600 640 l 5
 560 640 l 5
 480 760 l 5
 240 760 l 13
 200 720 l 29
 200 480 l 29
 240 440 l 29
 400 440 l 29
 480 520 l 29
 480 320 l 29
 400 400 l 29
 240 400 l 29
 200 360 l 29
 200 80 l 29
 240 40 l 29
 520 40 l 21
 600 200 l 5
 640 200 l 5
EndSplineSet
Validated: 1
EndChar

StartChar: F
Encoding: 33 70 29
Width: 760
VWidth: 0
Flags: W
HStem: 0 21G<0 280> 0 21G<0 280> 400 40<240 400> 760 40<240 480>
VStem: 80 120<80 360 480 720>
LayerCount: 2
Fore
SplineSet
0 0 m 1xb8
 80 80 l 1
 80 720 l 1
 0 800 l 1
 600 800 l 1
 600 640 l 1
 560 640 l 1
 480 760 l 1
 240 760 l 9
 200 720 l 25
 200 480 l 25
 240 440 l 25
 400 440 l 25
 480 520 l 25
 480 320 l 25
 400 400 l 17
 240 400 l 9
 200 360 l 25
 200 80 l 25
 280 0 l 25
 0 0 l 1xb8
EndSplineSet
Validated: 1
EndChar

StartChar: G
Encoding: 34 71 30
Width: 722
VWidth: 0
Flags: W
HStem: 0 21G<240 510 660 680> 0 21G<240 510 660 680> 560 21G<520 620> 760 40<360 440>
VStem: 560 120<120 280>
LayerCount: 2
Fore
SplineSet
160 240 m 5xb8
 240 90 l 1
 440 40 l 1
 560 120 l 1
 560 280 l 1
 480 360 l 1
 760 360 l 1
 680 280 l 1
 680 0 l 1
 600 80 l 1
 480 0 l 1
 280 0 l 1
 120 80 l 1
 40 200 l 1
 0 400 l 1
 40 600 l 1
 120 720 l 1
 280 800 l 1
 470 800 l 1
 640 720 l 1
 680 640 l 1
 600 560 l 1
 520 560 l 1
 520 680 l 1
 440 760 l 1
 360 760 l 1
 240 680 l 1
 160 560 l 5
 160 240 l 5xb8
EndSplineSet
Validated: 1
EndChar

StartChar: H
Encoding: 35 72 31
Width: 760
VWidth: 0
Flags: W
HStem: 0 21G<0 280 440 720> 0 21G<0 280 440 720> 400 40<240 480> 780 20G<0 280 440 720>
VStem: 80 120<80 360 480 720> 520 120<80 360 480 720>
LayerCount: 2
Fore
SplineSet
280 800 m 1xbc
 200 720 l 9
 200 480 l 25
 240 440 l 25
 480 440 l 25
 520 480 l 17
 520 720 l 1
 440 800 l 1
 720 800 l 1
 640 720 l 1
 640 80 l 1
 720 0 l 1
 440 0 l 1
 520 80 l 1
 520 360 l 9
 480 400 l 17
 240 400 l 9
 200 360 l 25
 200 80 l 25
 280 0 l 25
 0 0 l 1
 80 80 l 1
 80 720 l 1
 0 800 l 1
 280 800 l 1xbc
EndSplineSet
Validated: 1
EndChar

StartChar: I
Encoding: 36 73 32
Width: 320
VWidth: 0
Flags: W
HStem: 0 21G<0 280> 0 21G<0 280> 780 20G<0 280>
VStem: 80 120<80 720>
LayerCount: 2
Fore
SplineSet
200 80 m 25xb0
 280 0 l 25
 0 0 l 1
 80 80 l 1
 80 720 l 5
 0 800 l 1
 280 800 l 1
 200 720 l 9
 200 80 l 25xb0
EndSplineSet
Validated: 1
EndChar

StartChar: J
Encoding: 37 74 33
Width: 440
VWidth: 0
Flags: W
HStem: 0 40<120 160> 780 20G<120 400>
VStem: 200 120<120 720>
LayerCount: 2
Fore
SplineSet
80 160 m 1
 80 80 l 1
 120 40 l 1
 160 40 l 1
 200 120 l 1
 200 720 l 1
 120 800 l 1
 400 800 l 1
 320 720 l 9
 320 80 l 17
 240 0 l 1
 80 0 l 1
 0 80 l 1
 40 200 l 1
 80 160 l 1
EndSplineSet
Validated: 1
EndChar

StartChar: K
Encoding: 38 75 34
Width: 720
VWidth: 0
Flags: W
HStem: 0 21G<0 280 540 720> 0 21G<0 280 540 720> 780 20G<0 280 440 680>
VStem: 80 120<80 320 400 720>
LayerCount: 2
Fore
SplineSet
720 0 m 1xb0
 560 0 l 1
 520 40 l 1
 360 320 l 1
 280 400 l 1
 200 320 l 1
 200 80 l 9
 280 0 l 25
 0 0 l 1
 80 80 l 1
 80 720 l 1
 0 800 l 1
 280 800 l 1
 200 720 l 1
 200 400 l 1
 520 720 l 1
 440 800 l 1
 680 800 l 1
 600 720 l 1
 320 440 l 1
 480 360 l 1
 720 0 l 1xb0
EndSplineSet
Validated: 1
EndChar

StartChar: L
Encoding: 39 76 35
Width: 640
VWidth: 0
Flags: W
HStem: 0 40<240 480> 780 20G<0 280>
VStem: 80 120<80 720>
LayerCount: 2
Fore
SplineSet
200 80 m 17
 240 40 l 1
 480 40 l 1
 560 200 l 1
 600 200 l 1
 600 0 l 9
 0 0 l 1
 80 80 l 1
 80 720 l 1
 0 800 l 1
 280 800 l 1
 200 720 l 9
 200 80 l 17
EndSplineSet
Validated: 1
EndChar

StartChar: f
Encoding: 40 102 36
Width: 440
VWidth: 0
Flags: W
HStem: 0 21G<0 280> 0 21G<0 280> 520 40<280 320> 820 20G<240 360>
VStem: 80 120<80 480 560 680>
LayerCount: 2
Fore
SplineSet
200 560 m 1xb8
 320 560 l 1
 320 520 l 1
 280 520 l 1
 200 480 l 1
 200 80 l 1
 280 0 l 1
 0 0 l 1
 80 80 l 1
 80 480 l 1
 40 520 l 1
 40 560 l 1
 80 560 l 1
 80 680 l 1
 120 760 l 0
 160 800 l 1
 320 840 l 1
 400 800 l 1
 400 680 l 0
 360 640 l 1
 280 680 l 1
 320 760 l 1
 240 800 l 1
 200 720 l 1
 200 560 l 1xb8
EndSplineSet
Validated: 1
EndChar

StartChar: M
Encoding: 41 77 37
Width: 960
VWidth: 0
Flags: W
HStem: 0 21G<0 240 640 920> 0 21G<0 240 640 920> 780 20G<0 248.421 672.982 920>
VStem: 80 80<80 680> 720 120<80 680>
LayerCount: 2
Fore
SplineSet
480 230 m 9xb8
 680 800 l 1
 920 800 l 1
 840 720 l 1
 840 80 l 1
 920 0 l 1
 640 0 l 1
 720 80 l 1
 720 680 l 17
 440 -40 l 9
 160 680 l 25
 160 80 l 25
 240 0 l 25
 0 0 l 1
 80 80 l 1
 80 720 l 1
 0 800 l 1
 240 800 l 1
 480 230 l 9xb8
EndSplineSet
Validated: 1
EndChar

StartChar: N
Encoding: 42 78 38
Width: 760
VWidth: 0
Flags: W
HStem: 0 21G<0 240> 0 21G<0 240> 780 20G<0 252.308 480 720>
VStem: 80 80<80 680> 560 80<280 720>
LayerCount: 2
Fore
SplineSet
640 -40 m 1xb8
 560 0 l 1x78
 160 680 l 9
 160 80 l 25
 240 0 l 25
 0 0 l 1
 80 80 l 1
 80 720 l 1
 0 800 l 1
 240 800 l 1
 560 280 l 1
 560 720 l 1
 480 800 l 1
 720 800 l 1
 640 720 l 1
 640 -40 l 1xb8
EndSplineSet
Validated: 1
EndChar

StartChar: O
Encoding: 43 79 39
Width: 840
VWidth: 0
Flags: W
HStem: 0 21G<240 560> 0 21G<240 560> 780 20G<240 560>
LayerCount: 2
Fore
SplineSet
640 560 m 1x20
 560 720 l 1
 400 760 l 9
 240 720 l 25
 160 560 l 17
 160 240 l 9
 240 80 l 25
 400 40 l 25
 560 80 l 17
 640 240 l 1
 640 560 l 1x20
680 80 m 9
 520 0 l 17
 280 0 l 1xa0
 120 80 l 1
 40 200 l 1
 0 400 l 1
 40 600 l 9
 120 720 l 25
 280 800 l 25
 520 800 l 25
 680 720 l 25
 760 600 l 17
 800 400 l 1
 760 200 l 1
 680 80 l 9
EndSplineSet
Validated: 1
EndChar

StartChar: P
Encoding: 44 80 40
Width: 680
VWidth: 0
Flags: W
HStem: 0 21G<0 280> 0 21G<0 280> 760 40<240 360>
VStem: 80 120<80 360 400 720>
LayerCount: 2
Fore
SplineSet
200 360 m 1xb0
 200 79 l 1
 280 0 l 1
 0 0 l 1
 80 80 l 1
 80 720 l 1
 0 800 l 1
 360 800 l 1
 560 760 l 1
 640 600 l 1
 560 400 l 1
 360 320 l 1
 200 360 l 1xb0
240 760 m 1
 200 720 l 1
 200 400 l 1
 320 400 l 1
 440 440 l 1
 480 600 l 1
 440 720 l 1
 360 760 l 1
 240 760 l 1
EndSplineSet
Validated: 1
EndChar

StartChar: Q
Encoding: 45 81 41
Width: 840
VWidth: 0
Flags: W
HStem: -120 40<560 640> 0 40<320 400> 780 20G<240 560>
LayerCount: 2
Fore
SplineSet
480 40 m 1
 550 80 l 1
 640 240 l 1
 640 560 l 1
 560 720 l 1
 400 760 l 1
 240 720 l 1
 160 560 l 1
 160 240 l 1
 200 120 l 1
 240 200 l 1
 360 200 l 1
 440 120 l 1
 480 40 l 1
480 0 m 1
 520 -40 l 1
 560 -80 l 1
 640 -80 l 1
 680 -40 l 1
 720 40 l 1
 800 -40 l 1
 760 -80 l 1
 640 -120 l 1
 560 -120 l 1
 440 -40 l 1
 400 0 l 1
 280 0 l 1
 120 80 l 1
 40 200 l 1
 0 400 l 1
 40 600 l 1
 120 720 l 1
 280 800 l 1
 520 800 l 1
 680 720 l 1
 760 600 l 1
 800 400 l 1
 760 200 l 1
 680 80 l 1
 480 0 l 1
240 80 m 1
 320 40 l 1
 400 40 l 1
 360 120 l 1
 280 160 l 1
 240 120 l 1
 240 80 l 1
EndSplineSet
Validated: 1
EndChar

StartChar: S
Encoding: 46 83 42
Width: 720
VWidth: 0
Flags: W
HStem: 0 40<280 400> 560 21G<480 580> 760 40<320 400>
LayerCount: 2
Fore
SplineSet
200 560 m 1
 240 520 l 1
 560 400 l 9
 640 360 l 17
 680 240 l 1
 600 120 l 1
 450 0 l 1
 240 0 l 1
 100 80 l 9
 40 170 l 25
 160 240 l 25
 200 120 l 17
 280 40 l 1
 400 40 l 1
 480 120 l 1
 520 200 l 1
 480 280 l 1
 160 400 l 1
 80 520 l 1
 80 600 l 9
 160 720 l 25
 280 800 l 25
 430 800 l 25
 600 720 l 25
 640 640 l 25
 560 560 l 25
 480 560 l 25
 480 680 l 17
 400 760 l 1
 320 760 l 9
 240 720 l 25
 200 640 l 17
 200 560 l 1
EndSplineSet
Validated: 1
EndChar

StartChar: T
Encoding: 48 84 43
Width: 720
VWidth: 0
Flags: W
HStem: 0 21G<200 480> 0 21G<200 480> 820 20G<36 120 560 644>
VStem: 280 120<80 760>
LayerCount: 2
Fore
SplineSet
680 640 m 1xb0
 640 640 l 1
 560 720 l 1
 400 760 l 9
 400 80 l 25
 480 0 l 25
 200 0 l 1
 280 80 l 1
 280 760 l 1
 120 720 l 1
 40 640 l 1
 0 640 l 1
 40 840 l 1
 200 800 l 1
 480 800 l 1
 640 840 l 1
 680 640 l 1xb0
EndSplineSet
Validated: 1
EndChar

StartChar: U
Encoding: 49 85 44
Width: 800
VWidth: 0
Flags: W
HStem: 0 21G<260 500> 0 21G<260 500> 780 20G<10 280 512 760>
VStem: 80 120<240 720> 600 80<240 720>
LayerCount: 2
Fore
SplineSet
680 240 m 1xb8
 640 120 l 1
 560 40 l 9
 440 0 l 17
 320 0 l 1
 200 40 l 1
 120 120 l 1
 80 240 l 1
 80 720 l 1
 10 800 l 1
 280 800 l 1
 200 720 l 1
 200 240 l 1
 240 120 l 1
 280 80 l 9
 400 40 l 25
 520 80 l 17
 560 120 l 1
 600 240 l 1
 600 720 l 1
 512 800 l 1
 760 800 l 1
 680 720 l 1
 680 240 l 1xb8
EndSplineSet
Validated: 1
EndChar

StartChar: V
Encoding: 50 86 45
Width: 800
VWidth: 0
Flags: W
HStem: 780 20G<10 280 510 760>
LayerCount: 2
Fore
SplineSet
600 720 m 1
 510 800 l 1
 760 800 l 1
 680 720 l 1
 400 0 l 17
 360 -40 l 1
 80 720 l 1
 10 800 l 1
 280 800 l 1
 200 720 l 1
 400 200 l 25
 600 720 l 1
EndSplineSet
Validated: 1
EndChar

StartChar: W
Encoding: 51 87 46
Width: 1120
VWidth: 0
Flags: W
HStem: 780 20G<40 310 840 1080>
LayerCount: 2
Fore
SplineSet
640 760 m 1
 760 200 l 1
 920 720 l 1
 840 800 l 1
 1080 800 l 1
 1000 720 l 1
 760 0 l 1
 720 -40 l 1
 560 522 l 1
 400 0 l 1
 360 -40 l 1
 110 720 l 1
 40 800 l 1
 310 800 l 1
 230 720 l 1
 400 200 l 1
 520 720 l 1
 640 760 l 1
EndSplineSet
Validated: 1
EndChar

StartChar: X
Encoding: 52 88 47
Width: 800
VWidth: 0
Flags: W
HStem: 0 21G<0 240 480 760> 0 21G<0 240 480 760> 780 20G<0 280 520 760>
LayerCount: 2
Fore
SplineSet
600 720 m 1xa0
 520 800 l 1
 760 800 l 1
 680 720 l 1
 440 440 l 1
 680 124 l 1
 760 0 l 1
 480 0 l 1
 560 82 l 1
 360 360 l 1
 160 80 l 1
 240 0 l 1
 0 0 l 1
 80 80 l 1
 320 400 l 1
 80 684 l 1
 0 800 l 1
 280 800 l 1
 200 720 l 1
 400 480 l 17
 600 720 l 1xa0
EndSplineSet
Validated: 1
EndChar

StartChar: Y
Encoding: 53 89 48
Width: 720
VWidth: 0
Flags: W
HStem: 0 21G<200 480> 0 21G<200 480> 780 20G<0 280 440 680>
VStem: 280 120<80 360>
LayerCount: 2
Fore
SplineSet
360 440 m 1xb0
 400 440 l 1
 520 680 l 1
 520 720 l 1
 440 800 l 1
 680 800 l 1
 600 720 l 1
 400 360 l 9
 400 80 l 25
 480 0 l 25
 200 0 l 1
 280 80 l 1
 280 360 l 1
 80 720 l 1
 0 800 l 1
 280 800 l 1
 200 720 l 1
 360 440 l 1xb0
EndSplineSet
Validated: 1
EndChar

StartChar: Z
Encoding: 54 90 49
Width: 720
VWidth: 0
Flags: W
HStem: 0 40<240 560> 760 40<200 480>
LayerCount: 2
Fore
SplineSet
240 40 m 1
 560 40 l 1
 640 200 l 1
 680 200 l 1
 680 0 l 9
 40 0 l 1
 40 40 l 1
 480 760 l 1
 200 760 l 1
 80 600 l 1
 40 600 l 1
 80 800 l 1
 680 800 l 5
 240 80 l 1
 240 40 l 1
EndSplineSet
Validated: 1
EndChar

StartChar: k
Encoding: 55 107 50
Width: 640
VWidth: 0
Flags: W
HStem: 0 21G<0 280 460 600> 0 21G<0 280 460 600> 540 20G<320 560> 820 20G<150 200>
VStem: 80 120<80 200 280 720>
LayerCount: 2
Fore
SplineSet
0 760 m 1xb8
 200 840 l 1
 200 280 l 1
 400 480 l 1
 320 560 l 1
 560 560 l 1
 472 480 l 1
 360 360 l 1
 560 80 l 1
 600 0 l 1
 480 0 l 1
 440 40 l 1
 280 280 l 1
 200 200 l 1
 200 80 l 1
 280 0 l 1
 0 0 l 1
 80 80 l 1
 80 720 l 1
 0 760 l 1xb8
EndSplineSet
Validated: 1
EndChar

StartChar: v
Encoding: 56 118 51
Width: 640
VWidth: 0
Flags: W
HStem: 0 21G<233.333 330> 0 21G<233.333 330> 540 20G<0 280 360 600>
LayerCount: 2
Fore
SplineSet
320 0 m 1xa0
 240 0 l 1
 80 480 l 1
 0 560 l 1
 280 560 l 1
 200 480 l 1
 320 120 l 1
 440 480 l 1
 360 560 l 1
 600 560 l 1
 520 480 l 1
 360 80 l 1
 320 0 l 1xa0
EndSplineSet
Validated: 1
EndChar

StartChar: w
Encoding: 57 119 52
Width: 987
VWidth: 0
Flags: W
HStem: 0 21G<233.333 330 552.5 650> 0 21G<233.333 330 552.5 650> 540 20G<0 280 680 920>
LayerCount: 2
Fore
SplineSet
440 320 m 1xa0
 360 80 l 1
 320 0 l 1
 240 0 l 1
 80 480 l 1
 0 560 l 5
 280 560 l 1
 200 480 l 1
 320 120 l 1
 440 480 l 1
 520 520 l 1
 640 120 l 1
 760 480 l 1
 680 560 l 1
 920 560 l 1
 840 480 l 1
 680 80 l 1
 640 0 l 1
 560 0 l 1
 440 320 l 1xa0
EndSplineSet
Validated: 1
EndChar

StartChar: x
Encoding: 58 120 53
Width: 640
VWidth: 0
Flags: W
HStem: 0 21G<0 232 320 600> 0 21G<0 232 320 600> 540 20G<0 280 360 600>
LayerCount: 2
Fore
SplineSet
520 80 m 1xa0
 600 0 l 1
 320 0 l 1
 400 78 l 1
 280 240 l 1
 160 80 l 1
 232 0 l 1
 0 0 l 1
 80 78 l 1
 240 280 l 1
 80 480 l 1
 0 560 l 1
 280 560 l 1
 200 480 l 1
 320 318 l 1
 440 480 l 1
 360 560 l 1
 600 560 l 1
 520 480 l 1
 360 278 l 1
 520 80 l 1xa0
EndSplineSet
Validated: 1
EndChar

StartChar: y
Encoding: 59 121 54
Width: 640
VWidth: 0
Flags: W
HStem: 540 20G<0 280 360 600>
LayerCount: 2
Fore
SplineSet
240 0 m 1
 80 480 l 1
 0 560 l 1
 280 560 l 1
 200 480 l 1
 320 120 l 1
 440 480 l 1
 360 560 l 1
 600 560 l 1
 520 480 l 1
 200 -320 l 1
 120 -280 l 1
 240 0 l 1
EndSplineSet
Validated: 1
EndChar

StartChar: z
Encoding: 60 122 55
Width: 520
VWidth: 0
Flags: W
HStem: 0 40<200 360> 520 40<160 320>
LayerCount: 2
Fore
SplineSet
200 40 m 1
 360 40 l 1
 440 200 l 1
 480 200 l 1
 480 0 l 9
 0 0 l 1
 0 40 l 1
 320 520 l 1
 160 520 l 1
 80 360 l 1
 40 360 l 1
 40 560 l 1
 480 560 l 1
 200 80 l 1
 200 40 l 1
EndSplineSet
Validated: 1
EndChar

StartChar: one
Encoding: 61 49 56
Width: 320
VWidth: 0
Flags: W
HStem: 0 21G<0 280> 0 21G<0 280> 780 20G<160 200>
VStem: 80 120<80 600>
LayerCount: 2
Fore
SplineSet
120 760 m 1xb0
 200 800 l 9
 200 80 l 25
 280 0 l 25
 0 0 l 1
 80 80 l 1
 80 600 l 1
 0 600 l 1
 0 640 l 1
 80 680 l 1
 120 760 l 1xb0
EndSplineSet
Validated: 1
EndChar

StartChar: two
Encoding: 62 50 57
Width: 560
VWidth: 0
Flags: HW
LayerCount: 2
Fore
SplineSet
120 680 m 1
 40 600 l 25
 0 640 l 17
 80 760 l 1
 200 800 l 1
 320 800 l 1
 400 760 l 1
 480 680 l 1
 480 520 l 1
 440 440 l 1
 320 320 l 1
 120 160 l 1
 80 80 l 9
 400 80 l 17
 480 160 l 1
 520 160 l 9
 480 0 l 25
 0 0 l 25
 0 40 l 25
 40 160 l 17
 320 480 l 1
 360 600 l 1
 320 680 l 1
 240 720 l 9
 200 720 l 17
 120 680 l 1
EndSplineSet
Validated: 1
EndChar

StartChar: three
Encoding: 63 51 58
Width: 560
VWidth: 0
Flags: HW
LayerCount: 2
Fore
SplineSet
360 440 m 9
 440 400 l 25
 520 320 l 25
 520 160 l 25
 440 40 l 25
 280 0 l 25
 160 0 l 25
 40 80 l 25
 0 160 l 25
 120 200 l 25
 120 120 l 25
 200 44 l 17
 280 44 l 1
 360 80 l 9
 400 200 l 17
 400 280 l 9
 320 360 l 25
 240 400 l 25
 120 360 l 25
 160 480 l 17
 240 442 l 9
 320 482 l 17
 360 600 l 1
 320 680 l 1
 240 720 l 9
 200 720 l 17
 120 680 l 1
 40 600 l 25
 0 640 l 17
 80 760 l 1
 200 800 l 1
 320 800 l 1
 400 760 l 1
 480 680 l 1
 480 520 l 1
 360 440 l 9
EndSplineSet
Validated: 1
EndChar

StartChar: four
Encoding: 64 52 59
Width: 600
VWidth: 0
Flags: HW
LayerCount: 2
Fore
SplineSet
360 280 m 1
 360 680 l 1
 120 280 l 5
 200 280 280 280 360 280 c 1
320 800 m 1
 440 840 l 1
 440 280 l 1
 560 280 l 1
 560 200 l 1
 440 200 l 1
 440 80 l 1
 520 0 l 1
 240 0 l 1
 320 80 l 1
 320 200 l 1
 40 200 l 1
 0 280 l 1
 320 800 l 1
EndSplineSet
Validated: 1
EndChar

StartChar: five
Encoding: 65 53 60
Width: 560
VWidth: 0
Flags: W
HStem: 0 40<200 280> 480 40<200 320> 680 120<160 440>
VStem: 400 120<200 360>
LayerCount: 2
Fore
SplineSet
440 680 m 25
 160 680 l 25
 120 480 l 17
 200 520 l 1
 360 520 l 9
 440 480 l 25
 520 360 l 25
 520 160 l 25
 440 40 l 25
 280 0 l 25
 160 0 l 25
 40 80 l 25
 0 160 l 25
 120 200 l 25
 120 120 l 25
 200 40 l 17
 280 40 l 1
 360 80 l 9
 400 200 l 17
 400 360 l 9
 320 480 l 17
 200 480 l 9
 40 360 l 25
 120 800 l 17
 480 800 l 9
 440 680 l 25
EndSplineSet
Validated: 1
EndChar

StartChar: six
Encoding: 66 54 61
Width: 560
VWidth: 0
Flags: W
HStem: 0 40<200 280> 780 20G<300 365>
VStem: 0 80<200 240>
LayerCount: 2
Fore
SplineSet
120 320 m 1
 80 240 l 1
 80 200 l 1
 120 120 l 1
 200 40 l 1
 280 40 l 1
 360 120 l 1
 400 200 l 1
 400 240 l 1
 360 360 l 1
 240 400 l 1
 120 320 l 1
80 360 m 1
 200 440 l 1
 360 480 l 1
 480 400 l 1
 520 240 l 1
 480 160 l 1
 400 40 l 1
 280 0 l 1
 160 0 l 1
 40 80 l 1
 0 200 l 1
 0 320 l 1
 40 520 l 1
 120 680 l 1
 240 760 l 1
 360 800 l 1
 390 680 l 1
 280 680 l 1
 200 640 l 1
 120 520 l 1
 80 360 l 1
EndSplineSet
Validated: 1
EndChar

StartChar: quotesingle
Encoding: 67 39 62
Width: 200
VWidth: 0
Flags: W
HStem: 560 240
VStem: 40 120<520 560>
LayerCount: 2
Fore
SplineSet
40 560 m 29
 40 760 l 25
 80 800 l 25
 120 800 l 25
 160 760 l 25
 160 720 l 25
 80 600 l 25
 40 560 l 29
EndSplineSet
Validated: 1
EndChar

StartChar: seven
Encoding: 68 55 63
Width: 600
VWidth: 0
Flags: HW
LayerCount: 2
Fore
SplineSet
320 240 m 17
 320 0 l 9
 160 0 l 25
 200 200 l 25
 280 400 l 25
 480 720 l 25
 160 720 l 25
 80 600 l 25
 40 600 l 25
 40 800 l 25
 560 800 l 25
 560 720 l 25
 400 480 l 25
 320 240 l 17
EndSplineSet
Validated: 1
EndChar

StartChar: eight
Encoding: 69 56 64
Width: 798
VWidth: 0
Flags: HW
LayerCount: 2
Fore
SplineSet
280 360 m 25
 360 318 l 25
 400 204 l 25
 360 82 l 25
 280 38 l 25
 200 76 l 25
 120 196 l 25
 160 318 l 25
 240 374 l 25
 280 360 l 25
360 400 m 1
 440 442 l 1
 520 520 l 1
 520 640 l 1
 440 758 l 1
 320 800 l 1
 240 800 l 1
 120 760 l 1
 40 640 l 1
 40 520 l 1
 120 440 l 1
 200 404 l 9
 120 362 l 25
 40 284 l 25
 40 164 l 25
 80 78 l 25
 200 0 l 25
 360 0 l 25
 480 78 l 25
 520 160 l 25
 520 280 l 25
 440 366 l 25
 360 400 l 1
320 762 m 1
 392 720 l 1
 440 600 l 1
 400 482 l 1
 310 440 l 1
 192 480 l 1
 152 600 l 1
 192 720 l 1
 320 762 l 1
EndSplineSet
Validated: 9
EndChar

StartChar: eight
Encoding: 70 56 65
Width: 560
VWidth: 0
Flags: W
HStem: 0 21G<170 380> 0 21G<170 380> 780 20G<182.857 380>
LayerCount: 2
Fore
SplineSet
200 360 m 5x20
 160 240 l 5
 160 200 l 5
 200 80 l 5
 280 40 l 5
 360 80 l 5
 400 200 l 5
 400 240 l 5
 360 320 l 5
 240 400 l 5
 200 360 l 5x20
320 760 m 5
 200 720 l 5
 160 640 l 5
 200 560 l 5
 320 480 l 5
 400 520 l 5
 440 640 l 5
 400 720 l 5
 320 760 l 5
200 440 m 5
 80 524 l 5
 40 596 l 5
 40 678 l 5
 120 758 l 5
 240 800 l 5
 320 800 l 5
 440 760 l 5
 520 680 l 5
 520 600 l 5
 480 520 l 5
 360 440 l 5
 480 360 l 5
 520 280 l 5
 520 160 l 5
 440 40 l 5
 320 0 l 5
 200 0 l 5xa0
 80 80 l 5
 40 160 l 5
 40 280 l 5
 120 400 l 5
 200 440 l 5
EndSplineSet
Validated: 1
EndChar

StartChar: nine
Encoding: 71 57 66
Width: 600
VWidth: 0
Flags: W
HStem: 0 21G<160 260> 0 21G<160 260> 360 40<280 360> 780 20G<220 430>
VStem: 440 120<480 600>
LayerCount: 2
Fore
SplineSet
400 720 m 1x38
 320 760 l 1
 200 720 l 1
 160 640 l 1
 160 560 l 1
 200 440 l 1
 280 400 l 1
 360 400 l 1
 440 480 l 1
 440 600 l 1
 400 720 l 1x38
160 40 m 1
 280 80 l 1
 360 160 l 1
 430 320 l 1
 440 400 l 1
 360 360 l 1
 240 360 l 1
 80 440 l 1
 40 560 l 1
 80 680 l 1
 160 760 l 1
 280 800 l 1
 400 800 l 1
 520 720 l 1
 560 600 l 1
 560 440 l 1
 520 280 l 1
 400 120 l 1
 320 40 l 1
 200 0 l 1
 160 0 l 1xb8
 160 40 l 1
EndSplineSet
Validated: 1
EndChar

StartChar: zero
Encoding: 72 48 67
Width: 680
VWidth: 0
Flags: W
HStem: 0 21G<240 400> 0 21G<240 400> 780 20G<240 400>
LayerCount: 2
Fore
SplineSet
480 560 m 1x20
 400 720 l 1
 320 760 l 9
 240 720 l 25
 160 560 l 17
 160 240 l 9
 240 80 l 25
 320 40 l 25
 392 80 l 17
 480 240 l 1
 480 560 l 1x20
520 80 m 9
 360 0 l 17
 280 0 l 1xa0
 120 80 l 1
 40 200 l 1
 0 400 l 1
 40 600 l 9
 120 720 l 25
 280 800 l 25
 360 800 l 25
 520 720 l 25
 600 600 l 17
 640 400 l 1
 600 200 l 1
 520 80 l 9
EndSplineSet
Validated: 1
EndChar

StartChar: colon
Encoding: 73 58 68
Width: 200
VWidth: 0
Flags: W
HStem: 0 21G<40 130> 0 21G<40 130>
VStem: 0 160
LayerCount: 2
Fore
SplineSet
80 360 m 1x20
 0 400 l 1
 0 440 l 1
 40 520 l 1
 80 520 l 1
 160 480 l 1
 160 440 l 1
 120 360 l 1
 80 360 l 1x20
80 0 m 1xa0
 0 40 l 1
 0 80 l 1
 40 160 l 1
 80 160 l 1
 160 120 l 1
 160 80 l 1
 120 0 l 1
 80 0 l 1xa0
EndSplineSet
Validated: 1
EndChar

StartChar: semicolon
Encoding: 74 59 69
Width: 240
VWidth: 0
Flags: W
HStem: -120 40<0 80>
VStem: 0 200
LayerCount: 2
Fore
SplineSet
120 360 m 1
 40 400 l 1
 40 440 l 1
 80 520 l 1
 120 520 l 1
 200 480 l 1
 200 440 l 1
 160 360 l 1
 120 360 l 1
120 -120 m 1
 0 -120 l 1
 0 -80 l 1
 80 -80 l 1
 120 0 l 1
 40 40 l 1
 40 80 l 1
 80 160 l 1
 120 160 l 1
 200 120 l 1
 200 40 l 1
 120 -120 l 1
EndSplineSet
Validated: 1
EndChar

StartChar: comma
Encoding: 75 44 70
Width: 240
VWidth: 0
Flags: W
HStem: -120 40<0 80>
VStem: 0 200
LayerCount: 2
Fore
SplineSet
120 -120 m 1
 0 -120 l 1
 0 -80 l 1
 80 -80 l 1
 120 0 l 1
 40 40 l 1
 40 80 l 1
 80 160 l 1
 120 160 l 1
 200 120 l 1
 200 40 l 1
 120 -120 l 1
EndSplineSet
Validated: 1
EndChar

StartChar: exclam
Encoding: 76 33 71
Width: 240
VWidth: 0
Flags: W
HStem: 0 21G<80 170> 0 21G<80 170> 780 20G<60 180>
VStem: 40 160<80 80 591 760>
LayerCount: 2
Fore
SplineSet
120 0 m 1xb0
 40 40 l 1
 40 80 l 1
 80 160 l 1
 120 160 l 1
 200 120 l 1
 200 80 l 1
 160 0 l 1
 120 0 l 1xb0
80 800 m 1
 160 800 l 1
 200 760 l 1
 200 640 l 9
 160 360 l 17
 120 240 l 1
 80 360 l 1
 40 640 l 1
 40 760 l 1
 80 800 l 1
EndSplineSet
Validated: 1
EndChar

StartChar: hyphen
Encoding: 77 45 72
Width: 280
VWidth: 0
Flags: W
HStem: 240 120<0 240>
VStem: 0 240<240 360>
LayerCount: 2
Fore
SplineSet
0 360 m 25
 240 360 l 25
 240 240 l 25
 0 240 l 25
 0 360 l 25
EndSplineSet
Validated: 1
EndChar

StartChar: plus
Encoding: 78 43 73
Width: 600
VWidth: 0
Flags: HW
LayerCount: 2
Fore
SplineSet
0 360 m 25
 240 360 l 25
 240 600 l 25
 320 600 l 25
 320 360 l 25
 560 360 l 25
 560 280 l 25
 320 280 l 25
 320 40 l 25
 240 40 l 25
 240 280 l 25
 0 280 l 25
 0 360 l 25
EndSplineSet
Validated: 1
EndChar

StartChar: equal
Encoding: 79 61 74
Width: 520
VWidth: 0
Flags: HW
LayerCount: 2
Fore
SplineSet
480 360 m 25
 0 360 l 25
 0 440 l 25
 480 440 l 25
 480 360 l 25
480 200 m 25
 0 200 l 25
 0 280 l 25
 480 280 l 25
 480 200 l 25
EndSplineSet
Validated: 1
EndChar

StartChar: egrave
Encoding: 81 232 76
Width: 520
VWidth: 0
Flags: W
HStem: 0 21G<140 360> 0 21G<140 360> 540 20G<140 340>
LayerCount: 2
Fore
SplineSet
360 600 m 1x20
 320 600 l 1
 120 680 l 1
 120 720 l 1
 160 760 l 1
 200 760 l 1
 360 600 l 1x20
200 560 m 1
 280 560 l 1
 400 520 l 1
 480 360 l 1
 440 280 l 1
 120 240 l 1
 160 80 l 1
 280 40 l 1
 360 80 l 1
 400 160 l 1
 480 120 l 1
 400 40 l 1
 320 0 l 1
 200 0 l 1xa0
 80 40 l 1
 0 200 l 1
 0 360 l 1
 80 520 l 1
 200 560 l 1
240 520 m 1
 160 480 l 1
 120 280 l 1
 320 320 l 1
 320 480 l 1
 240 520 l 1
EndSplineSet
Validated: 1
EndChar

StartChar: eacute
Encoding: 82 233 77
Width: 520
VWidth: 0
Flags: HW
HStem: 0 21G<140 360> 0 21G<140 360> 540 20G<140 340>
LayerCount: 2
Fore
SplineSet
160 600 m 1x20
 320 760 l 1
 360 760 l 1
 400 720 l 1
 400 680 l 1
 200 600 l 1
 160 600 l 1x20
200 560 m 1
 280 560 l 1
 400 520 l 1
 480 360 l 1
 440 280 l 1
 120 240 l 1
 160 80 l 1
 280 40 l 1
 360 80 l 1
 400 160 l 1
 480 120 l 1
 400 40 l 1
 320 0 l 1
 200 0 l 1xa0
 80 40 l 1
 0 200 l 1
 0 360 l 1
 80 520 l 1
 200 560 l 1
240 520 m 1
 160 480 l 1
 120 280 l 1
 320 320 l 1
 320 480 l 1
 240 520 l 1
EndSplineSet
Validated: 1
EndChar

StartChar: ecircumflex
Encoding: 83 234 78
Width: 520
VWidth: 0
Flags: HW
HStem: 0 21G<140 360> 0 21G<140 360> 540 20G<140 340>
LayerCount: 2
Fore
SplineSet
80 600 m 1x20
 200 760 l 1
 280 760 l 1
 400 600 l 1
 360 600 l 1
 240 680 l 1
 120 600 l 1
 80 600 l 1x20
200 560 m 1
 280 560 l 1
 400 520 l 1
 480 360 l 1
 440 280 l 1
 120 240 l 1
 160 80 l 1
 280 40 l 1
 360 80 l 1
 400 160 l 1
 480 120 l 1
 400 40 l 1
 320 0 l 1
 200 0 l 1xa0
 80 40 l 1
 0 200 l 1
 0 360 l 1
 80 520 l 1
 200 560 l 1
240 520 m 1
 160 480 l 1
 120 280 l 1
 320 320 l 1
 320 480 l 1
 240 520 l 1
EndSplineSet
Validated: 1
EndChar

StartChar: igrave
Encoding: 84 236 79
Width: 320
VWidth: 0
Flags: W
HStem: 0 21G<0 280> 0 21G<0 280> 540 20G<150 200>
VStem: 80 120<80 440>
LayerCount: 2
Fore
SplineSet
200 600 m 1x30
 160 600 l 1
 0 680 l 1
 0 720 l 1
 40 760 l 1
 80 760 l 1
 200 600 l 1x30
0 480 m 1
 200 560 l 1
 200 80 l 1
 280 0 l 1
 0 0 l 1xb0
 80 80 l 1
 80 440 l 5
 0 480 l 1
EndSplineSet
Validated: 1
EndChar

StartChar: iacute
Encoding: 85 237 80
Width: 320
VWidth: 0
Flags: HW
HStem: 0 21G<0 280> 0 21G<0 280> 540 20G<150 200>
VStem: 80 120<80 440>
LayerCount: 2
Fore
SplineSet
40 600 m 1x30
 160 760 l 1
 200 760 l 1
 240 720 l 1
 240 680 l 1
 80 600 l 1
 40 600 l 1x30
0 480 m 1
 200 560 l 1
 200 80 l 1
 280 0 l 1
 0 0 l 1xb0
 80 80 l 1
 80 440 l 1
 0 480 l 1
EndSplineSet
Validated: 1
EndChar

StartChar: icircumflex
Encoding: 86 238 81
Width: 320
VWidth: 0
Flags: HW
HStem: 0 21G<0 280> 0 21G<0 280> 540 20G<150 200>
VStem: 80 120<80 440>
LayerCount: 2
Fore
SplineSet
-40 600 m 1x30
 80 760 l 1
 160 760 l 1
 280 600 l 1
 240 600 l 1
 120 680 l 1
 0 600 l 1
 -40 600 l 1x30
0 480 m 1
 200 560 l 1
 200 80 l 1
 280 0 l 1
 0 0 l 1xb0
 80 80 l 1
 80 440 l 1
 0 480 l 1
EndSplineSet
Validated: 1
EndChar

StartChar: idieresis
Encoding: 87 239 82
Width: 320
VWidth: 0
Flags: W
HStem: 0 21G<0 280> 0 21G<0 280> 540 20G<150 200> 600 120<0 40 200 240>
VStem: 80 120<80 440>
LayerCount: 2
Fore
SplineSet
240 720 m 1x38
 280 680 l 1
 280 640 l 1
 240 600 l 1
 160 600 l 5
 160 680 l 1
 200 720 l 1
 240 720 l 1x38
40 720 m 1
 80 680 l 1
 80 600 l 1
 0 600 l 1
 -40 640 l 1
 -40 680 l 1
 0 720 l 1
 40 720 l 1
0 480 m 1
 200 560 l 1
 200 80 l 1
 280 0 l 1
 0 0 l 1xb8
 80 80 l 1
 80 440 l 1
 0 480 l 1
EndSplineSet
Validated: 1
EndChar

StartChar: ae
Encoding: 88 230 83
Width: 800
VWidth: 0
Flags: W
HStem: 0 21G<70 200 420 640> 0 21G<70 200 420 640> 540 20G<90 300 420 620>
VStem: 0 120<160 240>
LayerCount: 2
Fore
SplineSet
120 560 m 1xb0
 240 560 l 5
 360 520 l 1
 480 560 l 1
 560 560 l 1
 680 520 l 1
 760 360 l 1
 720 280 l 1
 400 240 l 1
 440 80 l 1
 560 40 l 1
 640 80 l 1
 680 160 l 1
 760 120 l 1
 680 40 l 1
 600 0 l 1
 480 0 l 1
 360 40 l 1
 320 80 l 1
 280 40 l 1
 120 0 l 1
 80 0 l 1
 0 160 l 1
 0 280 l 1
 280 360 l 1
 280 440 l 1
 240 520 l 1
 120 480 l 1
 80 400 l 1
 0 480 l 1
 120 560 l 1xb0
520 520 m 1
 440 480 l 1
 400 280 l 1
 600 320 l 1
 600 480 l 1
 520 520 l 1
280 320 m 1
 120 240 l 1
 120 160 l 1
 160 80 l 1
 200 80 l 1
 280 160 l 1
 280 200 l 1
 280 320 l 1
EndSplineSet
Validated: 1
EndChar

StartChar: ccedilla
Encoding: 89 231 84
Width: 520
VWidth: 0
Flags: W
HStem: -80 40<220 240> 540 20G<140 340>
VStem: 0 120<212 348>
LayerCount: 2
Fore
SplineSet
280 -40 m 1
 320 -80 l 1
 280 -160 l 1
 200 -200 l 1
 160 -160 l 1
 160 -120 l 1
 200 -160 l 1
 240 -120 l 1
 240 -80 l 1
 160 -80 l 1
 200 0 l 1
 80 40 l 1
 0 200 l 1
 0 360 l 1
 80 520 l 1
 200 560 l 1
 280 560 l 1
 400 520 l 1
 440 440 l 1
 360 360 l 1
 320 360 l 1
 320 480 l 1
 240 520 l 1
 160 480 l 1
 120 320 l 1
 120 240 l 1
 160 80 l 1
 280 40 l 1
 360 80 l 1
 400 160 l 1
 480 120 l 1
 400 40 l 1
 320 0 l 1
 240 0 l 1
 220 -40 l 1
 280 -40 l 1
EndSplineSet
Validated: 1
EndChar

StartChar: agrave
Encoding: 90 224 85
Width: 520
VWidth: 0
Flags: W
HStem: 0 21G<70 180 340 420> 0 21G<70 180 340 420> 540 20G<90 280>
VStem: 0 120<160 240> 280 120<160 320 360 440>
LayerCount: 2
Fore
SplineSet
320 600 m 1x38
 280 600 l 1
 80 680 l 1
 80 720 l 1
 120 760 l 1
 160 760 l 1
 320 600 l 1x38
120 560 m 1
 240 560 l 1
 400 480 l 1
 400 80 l 1
 480 80 l 1
 480 40 l 1
 360 0 l 1
 280 80 l 1
 240 40 l 1
 120 0 l 1
 80 0 l 1xb8
 0 160 l 1
 0 280 l 1
 280 360 l 1
 280 440 l 1
 240 520 l 1
 120 480 l 1
 80 400 l 1
 0 480 l 1
 120 560 l 1
280 320 m 1
 120 240 l 1
 120 160 l 1
 160 80 l 1
 200 80 l 1
 280 160 l 1
 280 320 l 1
EndSplineSet
Validated: 1
EndChar

StartChar: aacute
Encoding: 91 225 86
Width: 520
VWidth: 0
Flags: HW
HStem: 0 21G<70 180 340 420> 0 21G<70 180 340 420> 540 20G<90 280>
VStem: 0 120<160 240> 280 120<160 320 360 440>
LayerCount: 2
Fore
SplineSet
120 600 m 1x38
 280 760 l 1
 320 760 l 1
 360 720 l 1
 360 680 l 1
 160 600 l 1
 120 600 l 1x38
120 560 m 1
 240 560 l 1
 400 480 l 1
 400 80 l 1
 480 80 l 1
 480 40 l 1
 360 0 l 1
 280 80 l 1
 240 40 l 1
 120 0 l 1
 80 0 l 1xb8
 0 160 l 1
 0 280 l 1
 280 360 l 1
 280 440 l 1
 240 520 l 1
 120 480 l 1
 80 400 l 1
 0 480 l 1
 120 560 l 1
280 320 m 1
 120 240 l 1
 120 160 l 1
 160 80 l 1
 200 80 l 1
 280 160 l 1
 280 320 l 1
EndSplineSet
Validated: 1
EndChar

StartChar: acircumflex
Encoding: 92 226 87
Width: 520
VWidth: 0
Flags: HW
HStem: 0 21G<70 180 340 420> 0 21G<70 180 340 420> 540 20G<90 280>
VStem: 0 120<160 240> 280 120<160 320 360 440>
LayerCount: 2
Fore
SplineSet
40 600 m 1x38
 160 760 l 1
 240 760 l 1
 360 600 l 1
 320 600 l 1
 200 680 l 1
 80 600 l 1
 40 600 l 1x38
120 560 m 1
 240 560 l 1
 400 480 l 1
 400 80 l 1
 480 80 l 1
 480 40 l 1
 360 0 l 1
 280 80 l 1
 240 40 l 1
 120 0 l 1
 80 0 l 1xb8
 0 160 l 1
 0 280 l 1
 280 360 l 1
 280 440 l 1
 240 520 l 1
 120 480 l 1
 80 400 l 1
 0 480 l 1
 120 560 l 1
280 320 m 1
 120 240 l 1
 120 160 l 1
 160 80 l 1
 200 80 l 1
 280 160 l 1
 280 320 l 1
EndSplineSet
Validated: 1
EndChar

StartChar: atilde
Encoding: 93 227 88
Width: 520
VWidth: 0
Flags: HW
HStem: 0 21G<70 180 340 420> 0 21G<70 180 340 420> 540 20G<90 280>
VStem: 0 120<160 240> 280 120<160 320 360 440>
LayerCount: 2
Fore
SplineSet
280 640 m 25x38
 360 680 l 25
 400 640 l 25
 320 600 l 25
 240 600 l 25
 160 640 l 25
 80 600 l 25
 40 640 l 25
 120 680 l 25
 200 680 l 25
 280 640 l 25x38
120 560 m 1
 240 560 l 1
 400 480 l 1
 400 80 l 1
 480 80 l 1
 480 40 l 1
 360 0 l 1
 280 80 l 1
 240 40 l 1
 120 0 l 1
 80 0 l 1xb8
 0 160 l 1
 0 280 l 1
 280 360 l 1
 280 440 l 1
 240 520 l 1
 120 480 l 1
 80 400 l 1
 0 480 l 1
 120 560 l 1
280 320 m 1
 120 240 l 1
 120 160 l 1
 160 80 l 1
 200 80 l 1
 280 160 l 1
 280 320 l 1
EndSplineSet
Validated: 1
EndChar

StartChar: adieresis
Encoding: 94 228 89
Width: 520
VWidth: 0
Flags: W
HStem: 0 21G<70 180 340 420> 0 21G<70 180 340 420> 540 20G<90 280> 600 120<80 120 280 320>
VStem: 0 120<160 240> 280 120<160 320 360 440>
LayerCount: 2
Fore
SplineSet
320 720 m 1x3c
 360 680 l 1
 360 640 l 1
 320 600 l 1
 240 600 l 1
 240 680 l 1
 280 720 l 1
 320 720 l 1x3c
120 720 m 1
 160 680 l 1
 160 600 l 1
 80 600 l 1
 40 640 l 1
 40 680 l 1
 80 720 l 1
 120 720 l 1
120 560 m 1
 240 560 l 1
 400 480 l 1
 400 80 l 1
 480 80 l 1
 480 40 l 1
 360 0 l 1
 280 80 l 1
 240 40 l 1
 120 0 l 1
 80 0 l 1xbc
 0 160 l 1
 0 280 l 1
 280 360 l 1
 280 440 l 1
 240 520 l 1
 120 480 l 1
 80 400 l 1
 0 480 l 1
 120 560 l 1
280 320 m 1
 120 240 l 1
 120 160 l 1
 160 80 l 1
 200 80 l 1
 280 160 l 1
 280 320 l 1
EndSplineSet
Validated: 1
EndChar

StartChar: aring
Encoding: 95 229 90
Width: 520
VWidth: 0
Flags: HW
HStem: 0 21G<70 180 340 420> 0 21G<70 180 340 420> 540 20G<90 280>
VStem: 0 120<160 240> 280 120<160 320 360 440>
LayerCount: 2
Fore
SplineSet
120 680 m 25x38
 200 635 l 25
 280 680 l 25
 200 725 l 25
 120 680 l 25x38
320 680 m 25
 240 600 l 25
 160 600 l 25
 80 680 l 25
 160 760 l 25
 240 760 l 25
 320 680 l 25
120 560 m 1
 240 560 l 1
 400 480 l 1
 400 80 l 1
 480 80 l 1
 480 40 l 1
 360 0 l 1
 280 80 l 1
 240 40 l 1
 120 0 l 1
 80 0 l 1xb8
 0 160 l 1
 0 280 l 1
 280 360 l 1
 280 440 l 1
 240 520 l 1
 120 480 l 1
 80 400 l 1
 0 480 l 1
 120 560 l 1
280 320 m 1
 120 240 l 1
 120 160 l 1
 160 80 l 1
 200 80 l 1
 280 160 l 1
 280 320 l 1
EndSplineSet
Validated: 1
EndChar

StartChar: slash
Encoding: 96 47 91
Width: 324
VWidth: 0
Flags: W
VStem: 0 280
LayerCount: 2
Fore
SplineSet
200 760 m 25
 280 760 l 25
 80 -80 l 25
 0 -80 l 29
 200 760 l 25
EndSplineSet
Validated: 1
EndChar

StartChar: ampersand
Encoding: 97 38 92
Width: 760
VWidth: 0
Flags: W
HStem: 0 21G<130 360 546.667 600> 0 21G<130 360 546.667 600> 780 20G<200 380>
LayerCount: 2
Fore
SplineSet
240 400 m 1x20
 200 360 l 1
 160 320 l 1
 120 200 l 1
 168 80 l 1
 280 40 l 1
 360 80 l 1
 440 160 l 1
 240 400 l 1x20
280 760 m 1
 200 720 l 1
 160 640 l 1
 200 560 l 1
 280 480 l 1
 360 560 l 1
 400 640 l 1
 360 720 l 1
 280 760 l 1
680 400 m 1
 600 320 l 1
 520 200 l 1
 600 40 l 1
 600 0 l 1
 560 0 l 1
 480 120 l 1
 400 40 l 1
 320 0 l 1
 160 0 l 1xa0
 40 80 l 1
 0 160 l 1
 0 240 l 1
 80 360 l 1
 200 440 l 1
 120 520 l 5
 80 600 l 1
 80 680 l 1
 160 760 l 1
 240 800 l 1
 320 800 l 1
 440 760 l 1
 480 680 l 1
 480 600 l 1
 440 520 l 1
 330 440 l 1
 480 240 l 1
 520 320 l 1
 480 400 l 1
 680 400 l 1
EndSplineSet
Validated: 1
EndChar
